<svg width="175" height="43" viewBox="0 0 175 43" fill="none" xmlns="http://www.w3.org/2000/svg">
<path d="M72.3031 12.7947H63.0353V35.7846H57.2844V12.7947H48.0166V7.58414H72.3031V12.7947Z" fill="#211E3B"/>
<path d="M74.7609 23.7726H83.8631C83.8083 22.6854 83.3946 21.7705 82.6225 21.0281C81.8777 20.2856 80.7741 19.9144 79.312 19.9144C77.988 19.9144 76.9123 20.3121 76.0848 21.1076C75.2574 21.9031 74.8162 22.7915 74.7609 23.7726ZM84.401 28.8638L88.994 30.1763C88.4422 31.9795 87.3525 33.4644 85.7255 34.6311C84.1253 35.7979 82.126 36.3812 79.7263 36.3812C76.8022 36.3812 74.3197 35.4399 72.2785 33.5572C70.2377 31.648 69.2168 29.1024 69.2168 25.9204C69.2168 22.8975 70.2098 20.4315 72.1957 18.5223C74.1817 16.5866 76.5265 15.6187 79.2298 15.6187C82.3742 15.6187 84.8287 16.5202 86.5944 18.3234C88.3868 20.1265 89.2831 22.6058 89.2831 25.7613C89.2831 25.9735 89.2697 26.2121 89.2423 26.4773C89.2423 26.7424 89.2423 26.9546 89.2423 27.1137L89.2009 27.3921H74.6368C74.6921 28.6649 75.2166 29.7255 76.2095 30.5741C77.2019 31.4226 78.3884 31.8469 79.7671 31.8469C82.112 31.8469 83.6563 30.8525 84.401 28.8638Z" fill="#211E3B"/>
<path d="M101.519 20.511C100.057 20.511 98.8299 21.0016 97.8369 21.9827C96.8439 22.9638 96.3474 24.3029 96.3474 26C96.3474 27.697 96.8439 29.0494 97.8369 30.057C98.8573 31.0381 100.098 31.5287 101.561 31.5287C102.857 31.5287 103.891 31.2105 104.664 30.5741C105.436 29.9112 105.96 29.1289 106.236 28.2274L111.077 29.7786C110.58 31.5817 109.504 33.133 107.849 34.4323C106.194 35.7316 104.098 36.3812 101.561 36.3812C98.5263 36.3812 95.9751 35.4001 93.9064 33.4379C91.8651 31.4491 90.8447 28.9698 90.8447 26C90.8447 23.0036 91.8517 20.5243 93.865 18.562C95.9063 16.5998 98.4161 15.6187 101.395 15.6187C103.988 15.6187 106.112 16.2684 107.767 17.5677C109.422 18.8405 110.483 20.3917 110.952 22.2213L106.029 23.8123C105.367 21.6114 103.864 20.511 101.519 20.511Z" fill="#211E3B"/>
<path d="M119.385 24.2896V35.7846H113.882V6.98749H119.385V17.8461C120.626 16.4142 122.46 15.6982 124.887 15.6982C127.37 15.6982 129.245 16.4274 130.514 17.8858C131.811 19.3177 132.459 21.1739 132.459 23.4543V35.7846H126.956V24.3692C126.956 23.2024 126.639 22.2611 126.004 21.5451C125.398 20.8292 124.46 20.4712 123.191 20.4712C122.06 20.4712 121.15 20.8292 120.46 21.5451C119.798 22.2611 119.44 23.1759 119.385 24.2896Z" fill="#211E3B"/>
<path d="M139.698 24.2499H150.579C150.524 22.818 150.028 21.6512 149.09 20.7497C148.152 19.8216 146.828 19.3575 145.118 19.3575C143.574 19.3575 142.304 19.8481 141.312 20.8292C140.319 21.7838 139.781 22.924 139.698 24.2499ZM151.158 29.2217L154.51 30.3354C153.931 32.112 152.855 33.5705 151.283 34.7107C149.71 35.8244 147.807 36.3812 145.573 36.3812C142.788 36.3812 140.415 35.4664 138.457 33.6368C136.526 31.7806 135.561 29.288 135.561 26.1591C135.561 23.2422 136.499 20.8292 138.374 18.92C140.25 17.0108 142.484 16.0562 145.077 16.0562C148.083 16.0562 150.428 16.971 152.11 18.8007C153.793 20.6038 154.634 23.0301 154.634 26.0795C154.634 26.5568 154.606 26.9546 154.551 27.2728H139.574C139.602 28.9698 140.181 30.3619 141.312 31.4491C142.47 32.5363 143.891 33.0799 145.573 33.0799C148.414 33.0799 150.276 31.7938 151.158 29.2217Z" fill="#211E3B"/>
<path d="M155.259 35.7846L162.665 26.0397L155.507 16.6528H160.224L165.106 23.3748L169.905 16.6528H174.498L167.423 26.0397C167.836 26.5435 169.064 28.1611 171.105 30.8923C173.146 33.6235 174.36 35.2543 174.746 35.7846H170.071L164.94 28.7444L159.893 35.7846H155.259Z" fill="#211E3B"/>
<path fill-rule="evenodd" clip-rule="evenodd" d="M43.2142 30.194C44.4382 27.5356 45.1181 24.5942 45.1181 21.5C45.1181 20.6717 45.0694 19.8544 44.9745 19.0505C42.1148 17.3527 38.9392 15.7536 36.3384 15.1711C31.68 14.1277 26.4959 14.7739 26.2551 18.6204C26.0495 21.9061 27.797 23.26 34.3331 25.5254C37.3958 26.587 40.4393 28.4024 43.2142 30.194ZM36.2637 38.6353C32.5104 41.3744 27.8296 43 22.7539 43C10.4025 43 0.389648 33.3741 0.389648 21.5C0.389648 9.62587 10.4025 0 22.7539 0C28.9378 0 34.5356 2.41292 38.584 6.31283C33.0168 5.74066 25.6269 5.68815 20.8333 8.4144C16.0613 11.1285 13.2886 16.0701 14.0336 20.9307C14.9104 26.6516 23.551 31.5893 29.0712 34.1299C31.5061 35.2505 34.0267 36.9329 36.2637 38.6353Z" fill="#086AD7"/>
</svg>
